<svg xmlns="http://www.w3.org/2000/svg" viewBox="0 0 540 360"><defs><style>.cls-1{fill:#231815;}</style></defs><g id="レイヤー_2" data-name="レイヤー 2"><g id="レイヤー_3" data-name="レイヤー 3"><path class="cls-1" d="M227.11,174.92c-21.47-.68-41.94.65-61.57,7.19-13.75,4.58-19,16.55-23.57,27.65a200.78,200.78,0,0,0-13.89,57.17c-.4,4-1.32,7.95-2.1,12.53l-6.28.52V60.44H126c3,24.21,6,48.15,15.44,70.82,11.76,28.36,21.11,31.47,50.19,35.18,11.32,1.44,22.87,1.39,35.49,2.09,0-3-.05-97,0-141.82,0-10.33-3.55-12.3-12.36-14.29-29.48-6.65-59.7-7.19-89.55-5.12-25,1.75-45,14.42-61,32.77C48.69,57.89,39.36,78.26,33,99.82c-3.77,12.85-4.73,26.4-7.09,40.46l-5.22.4V0c2.87,0,462.1.35,511.07.51,4.24,0,9-.51,7.14,4.93C523.35,7.51,508.3,9,493.51,11.6,469.67,15.87,450.17,27.68,432.73,43c-31.31,27.4-121.27,126.23-121.28,129.13q-.27,81.91-.11,163.83c0,9.8,7.1,15.67,21.19,16.23,21.55.87,43.15,1.82,64.69,1.28,27.25-.7,53.12-7.93,75.46-22.23,11.28-7.23,20.29-17.93,29-28,17.69-20.48,23.93-45.31,28.06-70.46,2.43-14.84,2.84-30,4.18-45.28H540V360H0V194.37l5-.46c4.18,19.9,7.56,39.48,12.54,58.7,5.53,21.34,14.19,41.85,29.31,59,17.2,19.56,39.39,32.13,66.33,38.08,24.46,5.4,49.09,3.52,73.68,3.74,8.64.08,17.37-1.23,25.91-2.7,10-1.71,14.36-7.25,14.36-16.52Zm84.21-26.43,1.94,1c1.16-1.44,2.23-2.95,3.49-4.31,16.84-18.12,34-36,50.47-54.41,11-12.23,24.23-23.36,28.57-39.5,4.84-18,.84-29.89-17.85-38.11-17.2-7.56-34.7-5.23-52.14-1.31-14.11,3.17-14.48,3.93-14.48,17.33Z"/></g></g></svg>